<svg width="44" height="44" viewBox="0 0 44 44" fill="none" xmlns="http://www.w3.org/2000/svg">
<path d="M37.5563 6.44372C46.1478 15.0351 46.1478 28.9649 37.5563 37.5564C28.9648 46.148 15.0351 46.148 6.44364 37.5564C-2.14793 28.9648 -2.14785 15.0353 6.44372 6.44364C15.0351 -2.14793 28.9648 -2.14785 37.5563 6.44372Z" fill="url(#paint0_linear_2_2821)"/>
<path d="M27.6951 0.745912L25.9402 7.29434C23.3617 6.60547 20.638 6.60547 18.0594 7.29434L16.3051 0.746453C20.0316 -0.248565 23.9682 -0.248565 27.6951 0.745912Z" fill="#F2F2F2"/>
<path d="M37.5568 6.44391C40.3908 9.27797 42.2902 12.6926 43.2543 16.3051L36.7064 18.0594C36.0399 15.5599 34.7256 13.1977 32.7644 11.2364L37.5568 6.44391Z" fill="#F2F2F2"/>
<path d="M43.2542 27.6944C42.2902 31.3067 40.3908 34.7226 37.5568 37.5565L32.7644 32.7642C34.7256 30.803 36.0394 28.44 36.7063 25.9401L43.2542 27.6944Z" fill="#F2F2F2"/>
<path d="M25.9401 36.7063L27.6944 43.2541C23.9681 44.2491 20.0315 44.2492 16.3051 43.2541L18.0593 36.7062C20.6378 37.395 23.3622 37.3945 25.9401 36.7063Z" fill="#F2F2F2"/>
<path d="M7.29428 25.9401C7.96131 28.4401 9.27505 30.803 11.2362 32.7642L6.44377 37.5566C3.60978 34.7225 1.7103 31.3078 0.74585 27.695L7.29428 25.9401Z" fill="#F2F2F2"/>
<path d="M6.44399 6.44403L11.2364 11.2365C9.2752 13.1976 7.96076 15.56 7.29435 18.0593L0.74646 16.305C1.71037 12.6926 3.61001 9.27802 6.44399 6.44403Z" fill="#F2F2F2"/>
<path d="M31.6036 31.6042C36.9078 26.3 36.9078 17.7002 31.6036 12.396C26.2994 7.09179 17.6996 7.09179 12.3954 12.396C7.09117 17.7002 7.09117 26.3 12.3954 31.6042C17.6996 36.9085 26.2994 36.9084 31.6036 31.6042Z" fill="#DE1424"/>
<path d="M35.5808 22.2133C35.5275 18.8083 34.2029 15.4203 31.6045 12.822C26.2998 7.51803 17.6998 7.51803 12.3959 12.822C9.79754 15.4203 8.47291 18.8083 8.41965 22.2133C8.36407 18.6662 9.68947 15.1022 12.3959 12.3959C17.6998 7.09193 26.2998 7.09193 31.6045 12.3959C34.3109 15.1022 35.6363 18.6662 35.5808 22.2133Z" fill="#DEDEDE"/>
<path d="M20.3619 9.86867C20.2093 9.86867 20.0766 9.7555 20.0561 9.60012C20.0339 9.43106 20.1529 9.2759 20.3221 9.25375C21.4353 9.10739 22.5646 9.10739 23.6786 9.25375C23.8477 9.27598 23.9668 9.43099 23.9446 9.60012C23.9224 9.76917 23.7675 9.88859 23.5982 9.86605C22.5377 9.72671 21.4624 9.72671 20.4026 9.86605C20.3889 9.86782 20.3753 9.86867 20.3619 9.86867Z" fill="white"/>
<path d="M14.3615 12.3541C14.2688 12.3541 14.1771 12.3125 14.1162 12.2332C14.0125 12.0979 14.038 11.9041 14.1734 11.8003C15.0646 11.1169 16.0425 10.5522 17.0802 10.122C17.2376 10.0566 17.4184 10.1314 17.4837 10.289C17.549 10.4465 17.4742 10.6272 17.3167 10.6925C16.3288 11.1021 15.3976 11.6397 14.5492 12.2904C14.4931 12.3334 14.427 12.3541 14.3615 12.3541Z" fill="white"/>
<path d="M10.407 17.5072C10.3676 17.5072 10.3275 17.4996 10.2889 17.4836C10.1313 17.4183 10.0566 17.2376 10.1219 17.0801C10.5519 16.0426 11.1166 15.0646 11.8001 14.1732C11.9039 14.0379 12.0977 14.0123 12.233 14.1161C12.3684 14.2198 12.394 14.4137 12.2902 14.549C11.6393 15.3977 11.1018 16.3288 10.6923 17.3165C10.643 17.4354 10.5281 17.5072 10.407 17.5072Z" fill="white"/>
<path d="M9.55943 23.9468C9.40682 23.9468 9.27413 23.8336 9.25367 23.6781C9.10739 22.5646 9.10731 21.4353 9.25359 20.3216C9.27582 20.1524 9.43114 20.0335 9.59996 20.0556C9.76901 20.0779 9.88812 20.2329 9.86589 20.402C9.72663 21.4624 9.72663 22.5376 9.86589 23.5977C9.88812 23.7668 9.76909 23.9218 9.59996 23.9441C9.58637 23.9459 9.57279 23.9468 9.55943 23.9468Z" fill="white"/>
<path d="M12.0455 29.9473C11.9528 29.9473 11.861 29.9057 11.8002 29.8264C11.1169 28.9355 10.5522 27.9574 10.1219 26.9195C10.0566 26.7619 10.1313 26.5813 10.2889 26.516C10.4463 26.4505 10.627 26.5254 10.6923 26.683C11.1021 27.6712 11.6397 28.6024 12.2902 29.4506C12.394 29.586 12.3684 29.7798 12.2331 29.8835C12.1771 29.9265 12.111 29.9473 12.0455 29.9473Z" fill="white"/>
<path d="M17.1984 33.9015C17.159 33.9015 17.119 33.8939 17.0803 33.8778C16.0429 33.4478 15.0649 32.8831 14.1734 32.1995C14.038 32.0958 14.0125 31.9019 14.1162 31.7666C14.22 31.6314 14.4138 31.6057 14.5491 31.7095C15.398 32.3604 16.3291 32.8979 17.3168 33.3074C17.4744 33.3727 17.5491 33.5533 17.4838 33.7109C17.4345 33.8297 17.3195 33.9015 17.1984 33.9015Z" fill="white"/>
<path d="M22 34.8561C21.4393 34.8561 20.8785 34.8195 20.3215 34.7464C20.1524 34.7241 20.0333 34.5691 20.0555 34.4C20.0778 34.231 20.2331 34.1119 20.4019 34.1341C21.4625 34.2734 22.5377 34.2734 23.5976 34.1341C23.7668 34.1118 23.9218 34.2309 23.944 34.4C23.9662 34.5691 23.8472 34.7241 23.678 34.7464C23.1214 34.8195 22.5607 34.8561 22 34.8561Z" fill="white"/>
<path d="M26.8014 33.9016C26.6803 33.9016 26.5654 33.8299 26.5161 33.711C26.4508 33.5535 26.5255 33.3729 26.683 33.3076C27.6711 32.8979 28.6022 32.3602 29.4506 31.7097C29.5859 31.6058 29.7798 31.6315 29.8835 31.7668C29.9873 31.9021 29.9617 32.0959 29.8264 32.1997C28.9353 32.8831 27.9573 33.4477 26.9195 33.878C26.8809 33.8941 26.8409 33.9016 26.8014 33.9016Z" fill="white"/>
<path d="M31.9544 29.9478C31.8889 29.9478 31.8228 29.927 31.7668 29.884C31.6315 29.7803 31.6058 29.5864 31.7097 29.4511C32.3604 28.6025 32.898 27.6713 33.3075 26.6835C33.3728 26.526 33.5535 26.4512 33.711 26.5165C33.8685 26.5819 33.9432 26.7625 33.8779 26.92C33.4478 27.9575 32.8832 28.9355 32.1997 29.8269C32.1389 29.9062 32.0472 29.9478 31.9544 29.9478Z" fill="white"/>
<path d="M34.4406 23.9473C34.4271 23.9473 34.4136 23.9464 34.3999 23.9445C34.2308 23.9223 34.1118 23.7673 34.134 23.5982C34.2733 22.5378 34.2733 21.4626 34.134 20.4025C34.1118 20.2334 34.2309 20.0783 34.3999 20.0561C34.5691 20.0337 34.7241 20.1529 34.7463 20.322C34.8926 21.4355 34.8926 22.5649 34.7463 23.6786C34.7259 23.834 34.5932 23.9473 34.4406 23.9473Z" fill="white"/>
<path d="M33.5928 17.5075C33.4717 17.5075 33.3568 17.4358 33.3074 17.3169C32.8979 16.329 32.3603 15.3979 31.7096 14.5493C31.6059 14.414 31.6314 14.2201 31.7668 14.1164C31.902 14.0126 32.0959 14.0382 32.1997 14.1735C32.883 15.0647 33.4477 16.0428 33.8779 17.0804C33.9432 17.2379 33.8685 17.4186 33.7109 17.4839C33.6723 17.4999 33.6323 17.5075 33.5928 17.5075Z" fill="white"/>
<path d="M29.6389 12.3544C29.5734 12.3544 29.5073 12.3336 29.4512 12.2906C28.6025 11.6398 27.6713 11.1022 26.6836 10.6927C26.5261 10.6274 26.4514 10.4468 26.5167 10.2892C26.582 10.1317 26.7627 10.057 26.9202 10.1223C27.9576 10.5523 28.9355 11.117 29.827 11.8005C29.9623 11.9043 29.988 12.0981 29.8841 12.2334C29.8234 12.3128 29.7317 12.3544 29.6389 12.3544Z" fill="white"/>
<path d="M30.153 14.2733C34.6556 18.7761 34.6556 26.0764 30.153 30.579C25.6503 35.0818 18.3499 35.0818 13.8473 30.5791C9.34453 26.0764 9.34453 18.7761 13.8473 14.2734C18.3499 9.77074 25.6502 9.77066 30.153 14.2733Z" fill="#E8E8E8"/>
<path d="M22.0001 33.5301C28.3679 33.5301 33.5301 28.3679 33.5301 22.0001C33.5301 15.6323 28.3679 10.4702 22.0001 10.4702C15.6323 10.4702 10.4702 15.6323 10.4702 22.0001C10.4702 28.3679 15.6323 33.5301 22.0001 33.5301Z" fill="url(#paint1_linear_2_2821)"/>
<path d="M30.1525 30.153C25.6499 34.6556 18.3497 34.6556 13.8471 30.153C11.5413 27.8473 10.4166 24.8082 10.4722 21.7868C10.5247 24.6661 11.6501 27.5292 13.8471 29.7268C18.3497 34.2287 25.6499 34.2287 30.1525 29.7261C32.3502 27.5284 33.4749 24.6661 33.5274 21.7867C33.583 24.8082 32.4583 27.8473 30.1525 30.153Z" fill="#E8E8E8"/>
<defs>
<linearGradient id="paint0_linear_2_2821" x1="21.9999" y1="44.0001" x2="21.9999" y2="3.14713e-05" gradientUnits="userSpaceOnUse">
<stop stop-color="#C91221"/>
<stop offset="1" stop-color="#FF0015"/>
</linearGradient>
<linearGradient id="paint1_linear_2_2821" x1="22.0001" y1="43.436" x2="22.0001" y2="0.551997" gradientUnits="userSpaceOnUse">
<stop stop-color="#C91221"/>
<stop offset="1" stop-color="#FF0015"/>
</linearGradient>
</defs>
</svg>
